<?xml version="1.0" encoding="utf-8"?>
<!-- Generator: Adobe Illustrator 21.0.2, SVG Export Plug-In . SVG Version: 6.00 Build 0)  -->
<svg version="1.1" id="Layer_2" xmlns="http://www.w3.org/2000/svg" xmlns:xlink="http://www.w3.org/1999/xlink" x="0px" y="0px"
	 viewBox="0 0 1080 1080" style="enable-background:new 0 0 1080 1080;" xml:space="preserve">
<style type="text/css">
	.st0{fill:#CCCCCC;}
	.st1{fill:#808080;}
	.st2{fill:#B2C9EF;}
	.st3{fill:#999999;}
	.st4{fill:#FFFFFF;}
</style>
<g>
	<g>
		<line x1="737.2" y1="581.3" x2="846.4" y2="662.5"/>
		<polygon points="846,663 736.8,581.8 737.5,580.8 846.8,662 		"/>
	</g>
	<rect x="772.4" y="581.8" transform="matrix(0.4307 -0.9025 0.9025 0.4307 -143.2274 1065.6434)" width="1.3" height="129.2"/>
	<rect x="771.1" y="592.5" transform="matrix(0.1089 -0.9941 0.9941 0.1089 31.7422 1355.2155)" width="1.3" height="134.7"/>
	
		<rect x="703.5" y="691.9" transform="matrix(0.9983 -5.849342e-02 5.849342e-02 0.9983 -39.1958 46.0641)" width="127.5" height="1.3"/>
	<rect x="706.7" y="705.2" transform="matrix(0.9173 -0.3982 0.3982 0.9173 -217.131 366.122)" width="132.6" height="1.3"/>
	<rect x="723" y="735.9" transform="matrix(0.8398 -0.5429 0.5429 0.8398 -273.9589 544.8138)" width="126.3" height="1.3"/>
	<rect x="733.2" y="746.3" transform="matrix(0.5981 -0.8014 0.8014 0.5981 -278.5482 938.4781)" width="126.6" height="1.3"/>
	<polygon points="798.5,821.7 797.3,821.1 856.5,700.1 857.7,700.7 	"/>
	
		<rect x="775.1" y="766.3" transform="matrix(8.595521e-02 -0.9963 0.9963 8.595521e-02 3.617 1537.8116)" width="129.6" height="1.3"/>
	
		<rect x="872.1" y="703.2" transform="matrix(0.9981 -6.188544e-02 6.188544e-02 0.9981 -45.8311 55.4841)" width="1.3" height="128.9"/>
	<rect x="884.1" y="694.4" transform="matrix(0.9116 -0.411 0.411 0.9116 -234.862 430.8947)" width="1.3" height="134.5"/>
	<rect x="915.4" y="681.5" transform="matrix(0.8305 -0.557 0.557 0.8305 -260.5409 636.6909)" width="1.3" height="129.9"/>
	<polygon points="976.9,776.3 872.4,701.7 873.2,700.6 977.6,775.2 	"/>
	<rect x="936.4" y="634.3" transform="matrix(0.4567 -0.8896 0.8896 0.4567 -119.4659 1217.4017)" width="1.3" height="144.4"/>
	<polygon points="1010,701 877.6,688.8 877.7,687.5 1010.1,699.7 	"/>
	<polygon points="872.8,668 872.7,666.7 1010.4,658.8 1010.4,660.1 	"/>
	<rect x="873.9" y="649.4" transform="matrix(0.9102 -0.4141 0.4141 0.9102 -184.7709 447.7878)" width="133.2" height="1.3"/>
	<rect x="856.5" y="621.3" transform="matrix(0.8302 -0.5574 0.5574 0.8302 -189.8924 620.4625)" width="134.5" height="1.3"/>
	<rect x="845.8" y="612.5" transform="matrix(0.6025 -0.7981 0.7981 0.6025 -126.1592 973.0143)" width="135.9" height="1.3"/>
	<rect x="821.3" y="595.2" transform="matrix(0.4612 -0.8873 0.8873 0.4612 -50.3941 1108.778)" width="133" height="1.3"/>
	<rect x="807.9" y="592.2" transform="matrix(0.1053 -0.9944 0.9944 0.1053 193.2392 1400.4343)" width="134" height="1.3"/>
	<polygon points="847.6,691 836.9,525.4 838.2,525.4 848.9,690.9 	"/>
	<polygon points="860.5,662.8 803,534 804.2,533.4 861.7,662.2 	"/>
	<polygon points="842.4,673.9 763.7,555.5 764.8,554.8 843.5,673.2 	"/>
</g>
<circle class="st0" cx="857.1" cy="681.8" r="27.7"/>
<path class="st1" d="M615.5,245.7c15.1-0.1,30.2-0.4,45.3-0.4c12.3,0,27.9-1.9,39.7,2.2c25.5,8.9,42.3,40.7,44.8,66
	c2.4-3.1,4.8-6.3,7.2-9.4c-7.5,1.2-14.3,4.5-21.8,5.7c-4,0.7-7.4,5.5-7.2,9.4c0.5,9.5,3.4,17.9,6,27c3.4,12.1,22.3,7,18.9-5.2
	c-2-7.2-4.9-14.2-5.3-21.8c-2.4,3.1-4.8,6.3-7.2,9.4c7.5-1.2,14.3-4.5,21.8-5.7c3.9-0.6,7.6-5.5,7.2-9.4
	c-3.1-31.6-20.5-64.5-48.9-80.2c-12.7-7-25.3-7.1-39.6-7.4c-20.3-0.4-40.6,0.1-60.8,0.2C602.9,226.2,602.8,245.8,615.5,245.7
	L615.5,245.7z"/>
<path class="st2" d="M684.4,226.1c-2.6-0.1-5.3-0.1-8.1-0.2c-20.3-0.4-40.6,0.1-60.8,0.2c-12.6,0.1-12.6,19.7,0,19.6
	c15.1-0.1,30.2-0.4,45.3-0.4c7.5,0,16.1-0.7,24.4-0.3C685.7,238.6,685.6,232.1,684.4,226.1z"/>
<path class="st2" d="M528.1,722.1c61.6-32.6,71.3-105.5,100-162.1c28.2-55.6,74.3-100.2,130.2-127.4c11.3-5.5,1.4-22.4-9.9-16.9
	c-53.9,26.2-99.5,68.4-129.6,120.3c-32.1,55.4-38.9,136.5-100.6,169.2C507.1,711.1,517,728.1,528.1,722.1L528.1,722.1z"/>
<path class="st2" d="M492.5,628.7c56.8-21,82.8-76.2,110.9-125.4c30.9-54,75.8-94.7,136.1-112.6c12.1-3.6,6.9-22.5-5.2-18.9
	c-54.6,16.2-101.7,50.7-133.4,98c-32.7,48.8-53.4,117.8-113.7,140C475.5,614.1,480.6,633,492.5,628.7L492.5,628.7z"/>
<g>
	<rect x="569.4" y="761.1" class="st3" width="63.5" height="20.6"/>
	<rect x="627.5" y="758.1" class="st3" width="5.4" height="26.4"/>
	<rect x="569.4" y="758.1" class="st3" width="5.4" height="26.4"/>
</g>
<g>
	
		<rect x="481.3" y="656.2" transform="matrix(0.6079 -0.794 0.794 0.6079 -355.9511 657.6091)" class="st1" width="13.1" height="66"/>
	
		<rect x="493" y="674.1" transform="matrix(0.4492 -0.8934 0.8934 0.4492 -315.4331 849.5998)" class="st1" width="76.7" height="13.1"/>
	
		<rect x="547.1" y="675" transform="matrix(0.1404 -0.9901 0.9901 0.1404 -231.9555 1162.5913)" class="st1" width="13.1" height="79.8"/>
	
		<rect x="524.1" y="713" transform="matrix(0.9418 -0.336 0.336 0.9418 -219.8982 221.6937)" class="st1" width="13.1" height="66.5"/>
	
		<rect x="455.7" y="724.4" transform="matrix(0.7582 -0.652 0.652 0.7582 -358.3677 495.4626)" class="st1" width="66.5" height="13.1"/>
</g>
<g>
	<rect x="509.8" y="783.5" transform="matrix(0.2922 -0.9564 0.9564 0.2922 -388.5597 1045.9875)" width="5.2" height="3.9"/>
	<path d="M509,787.2l-7.6-2.3l1.5-5l7.6,2.3L509,787.2z M500.7,784.7l-7.6-2.3l1.5-5l7.6,2.3L500.7,784.7z M492.4,782.1l-7.6-2.3
		l1.5-5l7.6,2.3L492.4,782.1z M484.1,779.6l-7.6-2.3l1.5-5l7.6,2.3L484.1,779.6z M475.7,777l-7.6-2.3l1.5-5l7.6,2.3L475.7,777z
		 M467.4,774.5l-7.6-2.3l1.5-5l7.6,2.3L467.4,774.5z M459.1,772l-7.6-2.3l1.5-5l7.6,2.3L459.1,772z M450.8,769.4l-7.6-2.3l1.5-5
		l7.6,2.3L450.8,769.4z M442.5,766.9l-7.6-2.3l1.5-5l7.6,2.3L442.5,766.9z M434.2,764.4l-7.6-2.3l1.5-5l7.6,2.3L434.2,764.4z
		 M425.9,761.8l-7.6-2.3l1.5-5l7.6,2.3L425.9,761.8z M417.5,759.3L410,757l1.5-5l7.6,2.3L417.5,759.3z M409.2,756.7l-7.6-2.3l1.5-5
		l7.6,2.3L409.2,756.7z M400.9,754.2l-7.6-2.3l1.5-5l7.6,2.3L400.9,754.2z M392.6,751.7l-7.6-2.3l1.5-5l7.6,2.3L392.6,751.7z
		 M384.3,749.1l-7.6-2.3l1.5-5l7.6,2.3L384.3,749.1z M376,746.6l-7.6-2.3l1.5-5l7.6,2.3L376,746.6z M367.7,744.1l-7.6-2.3l1.5-5
		l7.6,2.3L367.7,744.1z M359.4,741.5l-7.6-2.3l1.5-5l7.6,2.3L359.4,741.5z M351,739l-7.6-2.3l1.5-5l7.6,2.3L351,739z M342.7,736.4
		l-7.6-2.3l1.5-5l7.6,2.3L342.7,736.4z M334.4,733.9l-7.6-2.3l1.5-5l7.6,2.3L334.4,733.9z M326.1,731.4l-7.6-2.3l1.5-5l7.6,2.3
		L326.1,731.4z M317.8,728.8l-7.6-2.3l1.5-5l7.6,2.3L317.8,728.8z M309.5,726.3l-7.6-2.3l1.5-5l7.6,2.3L309.5,726.3z M301.2,723.8
		l-7.6-2.3l1.5-5l7.6,2.3L301.2,723.8z M292.8,721.2l-7.6-2.3l1.5-5l7.6,2.3L292.8,721.2z M284.5,718.7l-7.6-2.3l1.5-5l7.6,2.3
		L284.5,718.7z M276.2,716.1l-7.6-2.3l1.5-5l7.6,2.3L276.2,716.1z M267.9,713.6l-7.6-2.3l1.5-5l7.6,2.3L267.9,713.6z M259.6,711.1
		l-7.6-2.3l1.5-5l7.6,2.3L259.6,711.1z M251.3,708.5l-7.6-2.3l1.5-5l7.6,2.3L251.3,708.5z"/>
	<rect x="239.2" y="701" transform="matrix(0.2923 -0.9563 0.9563 0.2923 -501.0622 728.7543)" width="5.2" height="3.9"/>
</g>
<g>
	<g>
		<line x1="138" y1="581.3" x2="238.3" y2="649.3"/>
		<polygon points="237.9,649.9 137.6,581.8 138.4,580.7 238.7,648.8 		"/>
	</g>
	<rect x="173.2" y="581.8" transform="matrix(0.4307 -0.9025 0.9025 0.4307 -484.3432 524.9023)" width="1.3" height="129.2"/>
	<rect x="168.1" y="596" transform="matrix(0.1089 -0.9941 0.9941 0.1089 -505.1831 755.4076)" width="1.3" height="127"/>
	
		<rect x="104.3" y="691.9" transform="matrix(0.9983 -5.849342e-02 5.849342e-02 0.9983 -40.2217 11.017)" width="127.5" height="1.3"/>
	<rect x="107.7" y="706.4" transform="matrix(0.9173 -0.3982 0.3982 0.9173 -267.382 126.5558)" width="126.6" height="1.3"/>
	<rect x="123.8" y="735.9" transform="matrix(0.8398 -0.5429 0.5429 0.8398 -369.957 219.5119)" width="126.3" height="1.3"/>
	<rect x="134" y="746.3" transform="matrix(0.5981 -0.8014 0.8014 0.5981 -519.3387 458.3058)" width="126.6" height="1.3"/>
	<polygon points="199.4,821.7 198.2,821.1 257.3,700.1 258.5,700.7 	"/>
	
		<rect x="175.9" y="766.3" transform="matrix(8.595521e-02 -0.9963 0.9963 8.595521e-02 -544.0443 940.8668)" width="129.6" height="1.3"/>
	
		<rect x="273" y="703.2" transform="matrix(0.9981 -6.188544e-02 6.188544e-02 0.9981 -46.9795 18.4046)" width="1.3" height="128.9"/>
	<rect x="284.9" y="694.4" transform="matrix(0.9117 -0.411 0.411 0.9117 -287.7951 184.6488)" width="1.3" height="134.5"/>
	<polygon points="352.5,800.8 280.1,692.9 281.2,692.2 353.6,800.1 	"/>
	<polygon points="377.7,776.3 276.2,703.8 276.9,702.7 378.5,775.2 	"/>
	<rect x="337.2" y="634.3" transform="matrix(0.4567 -0.8896 0.8896 0.4567 -444.9647 684.3906)" width="1.3" height="144.4"/>
	
		<rect x="347.6" y="631.7" transform="matrix(9.162915e-02 -0.9958 0.9958 9.162915e-02 -375.3654 977.7216)" width="1.3" height="125.9"/>
	
		<rect x="285.5" y="661.8" transform="matrix(0.9988 -4.877002e-02 4.877002e-02 0.9988 -31.8955 17.7796)" width="125.8" height="1.3"/>
	<rect x="274.7" y="649.4" transform="matrix(0.9102 -0.4141 0.4141 0.9102 -238.5561 199.6764)" width="133.2" height="1.3"/>
	<polygon points="269.1,660 268.3,658.9 380,584 380.8,585 	"/>
	<polygon points="274.1,667.8 273.1,667 355,558.5 356.1,559.3 	"/>
	<rect x="222.1" y="595.2" transform="matrix(0.4612 -0.8873 0.8873 0.4612 -373.205 577.1527)" width="133" height="1.3"/>
	<rect x="208.7" y="592.2" transform="matrix(0.1055 -0.9944 0.9944 0.1055 -342.8798 804.474)" width="134" height="1.3"/>
	<polygon points="248.5,691 237.8,525.4 239.1,525.4 249.8,690.9 	"/>
	<polygon points="261.4,662.8 203.8,534 205,533.4 262.6,662.2 	"/>
	<polygon points="243.2,673.9 164.5,555.5 165.6,554.8 244.3,673.2 	"/>
</g>
<path class="st0" d="M292,682.3c0.2-1.4,0.3-2.8,0.3-4.2c-3.6-1.1-3.9-6.4-0.8-8.1c-0.3-1.5-0.8-2.9-1.3-4.2c0,0-0.1,0-0.1,0
	c-4.1,0-5.3-4.6-3.5-7.2c-0.7-1.1-1.6-2.2-2.4-3.3c-0.4,0.1-0.8,0.2-1.3,0.2c-3.3,0-4.7-2.9-4.2-5.4c-1.1-0.8-2.3-1.6-3.5-2.3
	c-0.7,0.8-1.7,1.3-3.1,1.3c-2.9,0-4.3-2.3-4.3-4.5c-1.6-0.5-3.2-0.9-4.9-1.1c-0.6,1.4-1.9,2.6-3.9,2.6c-2.1,0-3.5-1.2-4-2.8
	c-1.9,0.2-3.7,0.5-5.4,0.9c0,0.1-0.1,0.2-0.2,0.4c-0.3,1.9-1.7,3.6-4.2,3.6c-1.3,0-2.3-0.5-3-1.2c-1.4,0.7-2.7,1.5-3.9,2.4
	c0.7,2.6-0.7,5.7-4.1,5.7c-0.7,0-1.4-0.1-1.9-0.4c-1.1,1.2-2.1,2.6-3,4c2.4,2.4,1.4,7.7-3,7.7c-0.3,0-0.5,0-0.8-0.1
	c-0.6,1.7-1.1,3.5-1.4,5.4c3.3,1.5,3.2,7.1-0.4,8.3c0.1,1.4,0.3,2.8,0.6,4.2c4,0.4,4.8,5.4,2.5,7.7c0.5,1.1,1,2.2,1.7,3.2
	c0.6-0.3,1.3-0.5,2.1-0.5c4.3,0,5.4,4.9,3.3,7.5c0.8,0.8,1.7,1.6,2.7,2.4c0.7-1.2,1.9-2,3.7-2c3.8,0,5.1,3.9,3.8,6.6
	c1.4,0.6,2.8,1.1,4.3,1.6c0.5-1.6,1.9-2.9,4.1-2.9c2.8,0,4.2,2.1,4.3,4.3c0.5,0,0.9,0.1,1.4,0.1c1,0,2.1-0.1,3.1-0.2
	c-0.3-2.4,1.1-5.1,4.3-5.1c2.3,0,3.7,1.5,4.1,3.3c1-0.4,2-0.8,3-1.2c-0.5-2.5,0.9-5.5,4.2-5.5c1.2,0,2.2,0.4,2.9,1.1
	c1.1-0.9,2.2-1.9,3.2-2.9c-1.6-2.6-0.4-7,3.6-7c0.5,0,1,0.1,1.5,0.2c0.8-1.3,1.5-2.8,2.1-4.2C286.9,688.3,287.7,682.7,292,682.3z"/>
<circle class="st1" cx="257.9" cy="677.6" r="22.7"/>
<path d="M857.3,875.1c-107.3,0-194.6-87.3-194.6-194.6S750,486,857.3,486s194.6,87.3,194.6,194.6S964.6,875.1,857.3,875.1z
	 M857.3,506.9c-95.8,0-173.7,77.9-173.7,173.7s77.9,173.7,173.7,173.7S1031,776.3,1031,680.5S953.1,506.9,857.3,506.9z"/>
<path d="M257.9,876.4c-107.3,0-194.6-87.3-194.6-194.6s87.3-194.6,194.6-194.6s194.6,87.3,194.6,194.6S365.2,876.4,257.9,876.4z
	 M257.9,508.2c-95.8,0-173.7,77.9-173.7,173.7s77.9,173.7,173.7,173.7s173.7-77.9,173.7-173.7S353.7,508.2,257.9,508.2z"/>
<path d="M257.9,834.5c-85.9,0-155.8-69.9-155.8-155.8c0-85.9,69.9-155.8,155.8-155.8s155.8,69.9,155.8,155.8
	C413.7,764.6,343.8,834.5,257.9,834.5z M257.9,525.5c-84.5,0-153.2,68.7-153.2,153.2s68.7,153.2,153.2,153.2s153.2-68.7,153.2-153.2
	S342.4,525.5,257.9,525.5z"/>
<path class="st2" d="M407.5,519.8c-40.5-37.8-94-58.6-150.8-58.6c-59.6,0-115.4,24.7-157.3,69.5c-40.3,43.1-63.3,101.5-63.4,160.3
	c0.3-0.1,0.6-0.2,1-0.3c9.9-1.7,17.7-7.4,19.1-17.8c0.1-0.5,0.2-0.9,0.4-1.2c0.1-3.3,1.4-6.6,2.5-9.7c6.1-43.4,25.6-84.9,55.7-117
	c37.9-40.5,88.3-62.8,142-62.8c115.7,0,188.4,89.7,198.1,174l20.8-2.4C469.8,602.9,445.6,555.4,407.5,519.8z"/>
<path class="st2" d="M938.4,495.8c10.5,1.6,18.9-0.3,26.2-5.7c-36.8-21.1-79.4-31.3-123.3-28.8c-59.5,3.4-113.9,31.2-153.1,78.2
	c-37.8,45.3-57.5,104.9-54.2,163.6c0.3-0.1,0.6-0.3,1-0.3c9.8-2.3,17.2-8.4,18-18.8c0-0.5,0.2-0.9,0.3-1.2c-0.1-3.3,1-6.7,2-9.9
	c3.6-43.7,20.8-86.2,48.9-119.9c35.5-42.6,84.6-67.7,138.3-70.8c30.1-1.7,57.7,2.9,82.2,12.1C929.2,494.3,933.7,495,938.4,495.8z"/>
<path class="st2" d="M138.9,506.7c-6.8-11.6-19.4-19.4-33.8-19.4v58.7c1.2-0.5,2.5-0.9,4-1C118.4,531.7,129,519.5,138.9,506.7z"/>
<rect x="302.2" y="488.6" transform="matrix(0.3987 -0.9171 0.9171 0.3987 -256.2248 607.2689)" class="st1" width="65.5" height="20.9"/>
<rect x="309.2" y="531.7" transform="matrix(0.3931 -0.9195 0.9195 0.3931 -300.6788 618.2319)" class="st1" width="17.5" height="10.4"/>
<rect x="184.9" y="541.2" transform="matrix(0.5244 -0.8515 0.8515 0.5244 -302.968 550.4044)" width="312.5" height="10.4"/>
<path d="M263.5,685.5c16.5-3,33.2-2.5,49.4,2.1c16.3,4.6,29.7,14.1,44.7,21.4c27.2,13.2,57,12.8,86.4,10.2c7.5-0.7,7.5-12.4,0-11.8
	c-17.8,1.6-36.1,2.8-53.8-0.2c-17.1-2.9-31.3-10.9-46.3-19.1c-26.1-14.3-54.2-19.2-83.5-13.9C253,675.5,256.1,686.8,263.5,685.5
	L263.5,685.5z"/>
<rect x="402.7" y="337" transform="matrix(0.9574 -0.2888 0.2888 0.9574 -90.0802 134.4211)" width="15.7" height="71.1"/>
<rect x="456.7" y="397" transform="matrix(0.9574 -0.2888 0.2888 0.9574 -141.636 158.7431)" width="20.9" height="324.8"/>
<rect x="387.1" y="397.9" transform="matrix(0.9533 -0.3021 0.3021 0.9533 -102.2264 142.656)" class="st1" width="45.9" height="7.8"/>
<rect x="333.2" y="376.1" transform="matrix(0.2696 -0.963 0.963 0.2696 -90.1829 636.0059)" class="st1" width="81.9" height="2.6"/>
<g>
	<g>
		<path class="st3" d="M344.4,311c-4.9-9.4-23.9,1.1-28.5-8.5c-1.6-3.3,0-7.4,2.4-10.1c4.7-5.2,12.4-6.8,19.4-6.1
			c7,0.6,13.6,3.2,20.4,5.1c35.9,10.2,74.3,3.2,111.3,7.9c2.6,0.3,5.4,0.8,7.3,2.6s2.4,5.4,0.2,6.9c-1.3,0.9-3.1,0.8-4.7,0.6
			c-6.7-0.5-13.5,0.3-20,2.3c-12.2,3.6-22.9,10.8-34.3,16.4c-11.4,5.6-24.5,9.6-36.7,6.3c-8-2.1-14.8-7.1-21.4-12
			c-5.9-4.3-11.7-8.6-17.6-13"/>
	</g>
	<path class="st1" d="M459.7,294.3c-22.7-1.8-45.5,0-68.3-1.5c-12.5-0.8-24.4-3-36.3-6.4c-8-2.3-16-4.9-24.5-3.9
		c-6.5,0.8-15,5.1-18.1,11.5c0,0.5-0.2,1-0.4,1.5c0,0.2,0,0.3,0,0.5c0.4,0.6,0.6,1.4,0.6,2.1v0.3c0,0.9-0.3,1.8-0.8,2.4
		c1.3,1.1,1.7,3.1,1.3,4.7c5.5,8.7,18.7,1.5,25.6,5.5c0.3,0.6,0.7,1.2,1.3,1.7c14,10.3,28.9,25.1,47.2,26.5c19,1.4,35-9.7,51.3-17.8
		c11.5-5.7,21-7.1,33.6-8.2c4-0.3,7.6-0.2,9.5-4.6C487.1,296,466.4,294.9,459.7,294.3z M468.2,305.2c-2.6,0.4-5.4,0.3-8,0.6
		c-11.2,1.6-21.2,6.5-31.1,11.7c-14.1,7.5-30.2,17.2-46.9,12.9c-12.7-3.3-24.4-14-35-22.2c-3.8-4.6-8.4-5.4-14.5-5.5
		c-2.1,0-4.7,0.6-6.8,0.2c-1.3-0.1-2.6-0.2-3.9-0.4c2.1-3.9,4.1-7.8,6.2-11.7c5.9-4,18.8,1.3,24.8,3c28.7,8.2,57.7,7,87.2,7.4
		c7.2,0.1,14.8-0.2,21.9,1c2.2,0,4.3,0.5,6.2,1.6C473.5,305.4,473.5,305.9,468.2,305.2z"/>
</g>
<path class="st1" d="M319.3,296.5c0.4,0.7,3.4,6,3.5,5.5c1.6-0.9,3.2-1.8,4.8-2.7c-0.3-0.1-0.7-0.1-1-0.2c0.9,1.6,1.8,3.2,2.7,4.8
	c0-0.3,0.1-0.5,0.1-0.8c-2.2,0.6-4.4,1.2-6.5,1.7c0.7,0.8,1.5,1.7,2.2,2.5c2.1,2.5,7,0.6,6.7-2.8c-0.4-4.3-0.3-4.1-1.9-8.1
	c-1.9,1.5-3.8,2.9-5.8,4.4c1.8,1.3,3.6,2.7,5.3,4c2.6,2,7-1.4,5.8-4.4c-1.1-2.2-1.8-4.5-2.1-7c-2.2,1.3-4.4,2.5-6.5,3.8
	c1.5,1.7,3,3.5,4.5,5.2c2.5,2.9,7.8-0.2,6.5-3.8c-1-2.8-1.9-5.6-2.9-8.4c-2.4,1-4.8,2-7.2,3c1.9,2.1,3.3,4.5,4.2,7.2
	c1.9,4.1,8.4,1.2,7.2-3c-0.6-1.9-1.1-3.8-1.7-5.7c-2.2,1.3-4.4,2.5-6.5,3.8c2.5,2.7,4.4,5.7,5.6,9.2c1.7,4,8.8,1.1,7.2-3
	c-1.2-3-2.4-6.1-3.6-9.1c-2.4,1-4.8,2-7.2,3c2.4,3.5,4.3,6.8,6.2,10.6c2.3-1.3,4.5-2.6,6.8-4c-2.3-3.5-3.9-7.4-4.9-11.5
	c-2.4,1-4.8,2-7.2,3c2.9,4.5,5.8,8.9,8.7,13.4c2.3,3.5,8.8,1.4,7.2-3c-1.6-4.4-3.4-8.7-5.6-12.9c-2.3,1.3-4.5,2.6-6.8,4
	c3.1,5.8,6.3,11.6,9.4,17.3c2.1,3.8,8.6,1.2,7.2-3c-1.4-4.1-2.9-8.2-4.3-12.3c-2.4,1-4.8,2-7.2,3c3.4,4.5,5.4,7.9,7.1,13.6
	c1.5,4.8,8.9,2.8,7.6-2.1c-2.4-8.8-5.8-16.6-10.6-24.3c-2.1,1.6-4.1,3.2-6.2,4.7c8,8.6,13.4,17.8,17.2,28.9c2.4-1,4.8-2,7.2-3
	c-4.5-8-7.6-16.1-9.6-25c-1.3,1.7-2.5,3.3-3.8,5c4,0.3,12.1,25.3,13.6,28.7c2.3-1.3,4.5-2.6,6.8-4c-2.3-5.2-4-10.8-6.3-16
	c-2.9-6.3-1.7-2.6-0.6,2.1c1.9,7.9,5.9,15.9,8.7,23.6c1.4,3.8,8.1,3.7,7.7-1c-0.9-12.2-3.3-23.8-7.5-35.2c-2.2,1.3-4.4,2.5-6.5,3.8
	c7.9,9.4,12,19.8,12.8,32c2.6-0.3,5.1-0.7,7.7-1c-2.3-10.4-4.6-20.7-6.8-31.1c-2.4,1-4.8,2-7.2,3c6.7,9.5,10.8,19.4,12.9,30.8
	c2.5-0.7,5-1.4,7.6-2.1c-2.2-11.1-5-21.8-8.6-32.5c-2.2,1.3-4.4,2.5-6.5,3.8c7.4,8.2,11.7,17.5,13.1,28.6c2.6-0.3,5.1-0.7,7.7-1
	c-2-11-5.3-21.3-9.8-31.6c-2.1,1.6-4.1,3.2-6.2,4.7c7.3,7,11.9,14.7,14.7,24.5c2.5-0.7,5-1.4,7.6-2.1c-2.8-9.1-6.4-17.4-11.2-25.7
	c-2.1,1.6-4.1,3.2-6.2,4.7c7.3,6.4,11.7,13.6,14.1,23.1c2.5-0.7,5-1.4,7.6-2.1c-2.4-9.6-6.2-18.2-11.8-26.5
	c-1.8,1.8-3.6,3.6-5.4,5.4c7.9,5.9,12.7,13.1,15.5,22.4c1.4,4.8,8.8,2.8,7.6-2.1c-2.2-9-5.4-16.9-9.9-25c-1.8,1.8-3.6,3.6-5.4,5.4
	c6.8,4.6,10.7,10.2,12.8,18.1c1.1,4.1,8,3.5,7.7-1c-0.6-7.4-2-14.1-4.9-21c-1.9,1.5-3.8,2.9-5.8,4.4c5.3,4,8.5,8.5,11,14.6
	c1.8,4.1,8.3,1.2,7.2-3c-1.1-4-2.3-7.9-3.4-11.9c-1.9,1.5-3.8,2.9-5.8,4.4c2.3,2.1,4.7,4.1,7,6.2c2.8,4.2,8.9,0.6,6.8-4
	c-2.4-5.1-5.3-9.3-9.1-13.4c-1.6,2.1-3.2,4.1-4.7,6.2c4.8,3,7.6,5.6,11.1,9.8c2.5,3,7.8-0.2,6.5-3.8c-1-2.7-1.9-5.4-2.9-8.2
	c-1.9,1.5-3.8,2.9-5.8,4.4c1.7,1.3,3.4,2.5,5,3.8c2.9,3,7.3-0.2,6.5-3.8c-0.3-1.6-0.6-3.1-0.9-4.7c-2.2,1.3-4.4,2.5-6.5,3.8
	c1,0.7,2.1,1.5,3.1,2.2c0.9-1.6,1.8-3.2,2.7-4.8c0.8,0.2,1.5,0.5,2.3,0.7c0.2,1.6,0.4,3.2,0.6,4.7c2.9-4.2,24-0.5,27.2,0.4
	c0.3-2.6,0.7-5.1,1-7.7c-12.5,1.2-24.5,3.8-36.4,7.8c-4.7,1.6-2.7,9.2,2.1,7.6c11.3-3.8,22.5-6.4,34.3-7.5c4.2-0.4,5.6-6.5,1-7.7
	c-8.8-2.4-29.9-5.7-36.1,3.2c-1,1.4-0.6,3.6,0.6,4.7c0.2,0.2,0.4,0.4,0.6,0.6c1,1,2.5,1.4,3.8,1c0.3-0.1,0.6-0.2,0.9-0.3
	c2.2-0.6,3.1-2.7,2.7-4.8c-0.5-2.7-3.1-3.9-5.1-5.6c-3-2.5-7.3-0.2-6.5,3.8c0.3,1.6,0.6,3.1,0.9,4.7c2.2-1.3,4.4-2.5,6.5-3.8
	c-3-3.2-2.8-3-6.6-5c-2.8-1.5-6.9,1-5.8,4.4c1,2.7,1.9,5.4,2.9,8.2c2.2-1.3,4.4-2.5,6.5-3.8c-3.7-4.6-7.7-8-12.7-11.1
	c-3.9-2.4-7.7,2.9-4.7,6.2c3.6,3.9,5.6,7.1,7.8,11.8c2.3-1.3,4.5-2.6,6.8-4c-2.8-4.2-5.4-6.6-9.8-9c-2.9-1.6-6.7,1-5.8,4.4
	c1.1,4,2.3,7.9,3.4,11.9c2.4-1,4.8-2,7.2-3c-3.2-7.5-7.4-12.5-13.9-17.4c-2.6-2-7,1.4-5.8,4.4c2.6,6.3,4.1,12,4.6,18.9
	c2.6-0.3,5.1-0.7,7.7-1c-2.7-9.9-8-17.1-16.4-22.7c-3.4-2.3-7.2,2.1-5.4,5.4c4.1,7.4,7.1,14.9,9.1,23.1c2.5-0.7,5-1.4,7.6-2.1
	c-3.4-11.4-9.6-20-19.1-27.1c-3.2-2.4-7.5,2.2-5.4,5.4c5.1,7.7,8.7,15.6,11,24.6c1.2,4.9,8.8,2.8,7.6-2.1
	c-2.7-10.6-7.9-19.3-16.1-26.5c-3.2-2.9-8.5,0.7-6.2,4.7c4.4,7.6,7.9,15.4,10.4,23.8c1.5,4.8,8.9,2.8,7.6-2.1
	c-3.1-10.9-8.5-20-16.7-27.9c-3.4-3.3-7.9,0.8-6.2,4.7c4.2,9.6,7.1,19.4,9,29.7c0.8,4.3,8.2,3.4,7.7-1c-1.7-13.2-6.5-24.2-15.4-34.1
	c-2.6-2.9-7.8,0.1-6.5,3.8c3.6,10.7,6.4,21.4,8.6,32.5c1,5,8.5,2.8,7.6-2.1c-2.2-12.1-6.6-22.7-13.7-32.7c-2.5-3.6-8.1-1.5-7.2,3
	c2.3,10.4,4.6,20.7,6.8,31.1c0.9,4.3,8,3.4,7.7-1c-1-14.4-5.8-26.5-15.1-37.5c-2.5-3-7.9,0.2-6.5,3.8c3.9,10.9,6.3,21.6,7.2,33.1
	c2.6-0.3,5.1-0.7,7.7-1c-3.4-9.3-6.5-18.8-10.3-27.9c-2.2-5.1-2.9-7.1-8.1-9c-1.3-0.5-2.8,0.1-3.8,1c-8.2,7.5,2.6,24.2,6.1,32.1
	c2.1,4.6,8.7,0.6,6.8-4c-4.1-9.5-7.9-31.6-20.4-32.6c-2.7-0.2-4.3,2.7-3.8,5c2.2,9.6,5.6,18.3,10.4,26.9c2.1,3.8,8.6,1.3,7.2-3
	c-4.1-12.3-10.4-22.9-19.2-32.4c-3-3.3-8.5,1-6.2,4.7c4.4,7.1,7.6,14.4,9.8,22.5c2.5-0.7,5-1.4,7.6-2.1c-1.8-5.8-4.2-10.6-7.9-15.5
	c-2.4-3.2-8.8-1.6-7.2,3c1.4,4.1,2.9,8.2,4.3,12.3c2.4-1,4.8-2,7.2-3c-3.1-5.8-6.3-11.6-9.4-17.3c-2.4-4.5-9-0.5-6.8,4
	c1.9,3.5,3.5,7.2,4.8,11c2.4-1,4.8-2,7.2-3c-2.9-4.5-5.8-8.9-8.7-13.4c-2.3-3.6-8.4-1.4-7.2,3c1.4,4.8,3.1,9,5.6,13.4
	c2.5,4.4,9,0.5,6.8-4c-1.9-3.8-3.8-7.1-6.2-10.6c-2.3-3.4-8.9-1.4-7.2,3c1.2,3,2.4,6.1,3.6,9.1c2.4-1,4.8-2,7.2-3
	c-1.8-4.2-3.9-7.3-6.8-10.8c-2.6-3.1-7.6,0.2-6.5,3.8c0.6,1.9,1.1,3.8,1.7,5.7c2.4-1,4.8-2,7.2-3c-0.9-2.7-2.3-5.1-4.2-7.2
	c-2.4-3.3-8.7-1.5-7.2,3c1,2.8,1.9,5.6,2.9,8.4c2.2-1.3,4.4-2.5,6.5-3.8c-1.5-1.7-3-3.5-4.5-5.2c-2.7-3.2-7.3,0.3-6.5,3.8
	c0.3,2.5,1,4.8,2.1,7c1.9-1.5,3.8-2.9,5.8-4.4c-1.8-1.3-3.6-2.7-5.3-4c-2.6-2-7,1.4-5.8,4.4c0.5,2,1.1,4,1.6,6
	c2.2-0.9,4.5-1.8,6.7-2.8c-0.7-0.8-1.5-1.7-2.2-2.5c-1.8-2.1-6.1-1.1-6.5,1.7c0,0.3-0.1,0.5-0.1,0.8c-0.3,2,0.5,4.4,2.7,4.8
	c0.3,0.1,0.7,0.1,1,0.2c2,0.4,4.4-0.6,4.8-2.7c1-4.6-2-7.7-4.3-11.5C323.4,288.2,316.7,292.2,319.3,296.5L319.3,296.5z"/>
<path class="st1" d="M310,296.8c-1.2,7,2.1,12.8,8.6,15.9c4.3,2,9.1,2,13.8,2c7.1,0.1,13,1,19.4,4.4c4.4,2.4,8.4-4.4,4-6.8
	c-5.3-2.8-10.6-4.7-16.6-5.3c-5.7-0.6-23.3,1.9-21.6-8.2C318.4,294,310.8,291.8,310,296.8L310,296.8z"/>
<path class="st1" d="M391.1,341.1c9.6-1,18.8-3,27.7-6.7c10.9-4.6,19.8-14.2,30.8-17.7c4.8-1.6,2.7-9.1-2.1-7.6
	c-8.5,2.8-14.8,9.2-22.5,13.6c-10.5,6-22,9.3-34,10.6C386.1,333.8,386.1,341.7,391.1,341.1L391.1,341.1z"/>
<path class="st1" d="M410.6,304.9c-0.9,0.2-1.8,0.5-2.7,0.7c0.7-2.4,1.3-4.9,2-7.3c-0.4-0.1-0.9-0.2-1.3-0.3c-0.3,2.6-0.7,5.1-1,7.7
	c1.5-0.2,5.3-1,6.7-0.2c-0.6-1.1-1.3-2.3-1.9-3.4c0,0.1,0,0.3,0,0.4c-0.3,4.1,5.3,5,7.3,2c-0.5,0.2-0.9,0.5-1.4,0.7
	c3.8,1.3,6.5-3.9,3.8-6.5c-0.1-0.1-0.2-0.2-0.4-0.4c0.3,1.3,0.7,2.5,1,3.8c0-0.2,0.1-0.3,0.1-0.5c-1.9,0.8-3.8,1.6-5.8,2.3
	c0.2,0.1,0.4,0.3,0.6,0.4c-0.6-0.8-1.2-1.6-1.8-2.3c1,2.5-0.1,6-0.4,8.5c-0.2,3,1.7,6.3,1.2,9c2.6,0.3,5.1,0.7,7.7,1
	c0,0.1,0,0.1,0,0.2c-2.1,0.3-4.1,0.5-6.2,0.8c0-1,0-1.9,0-2.9c2.2,0.6,4.4,1.2,6.5,1.7c0,0.3,0,0.7,0,1c-0.6,0.8-1.2,1.6-1.8,2.3
	c0.2-0.1,0.3-0.2,0.5-0.3c-2-1.1-3.9-2.3-5.9-3.4c0,0.2,0,0.5,0,0.7c0.4-0.9,0.8-1.8,1.1-2.8c0.5-0.3,0.9-0.6,1.4-0.8
	c-4.1-3-8,3.8-4,6.8c3.7,2.7,9.4,1.4,9.3-3.9c-0.1-3-3.3-4.8-5.9-3.4c-2.1,1.1-3.2,3.5-2.3,5.8c0.9,2.5,4.5,4.2,6.5,1.7
	c2.3-2.7,2.2-5.5,0-8.2c-1.7-2.2-4.8-1-6.2,0.8c-0.9,1.2-1.1,2.2-1.1,3.8c0,4.3,6.9,5.5,7.7,1c0.4-2.1,0.4-3.9-0.2-5.9
	c-0.7-2.9-0.7-5.1-0.4-8.1c0.4-4,0.8-7.9-2.7-10.4c-1.9-1.5-5.3,0-5.8,2.3c-0.3,1.9-0.1,3.3,1.3,4.7c1.3-2.2,2.5-4.4,3.8-6.5
	c-3.1-1-5.8,0.2-7.5,2.9c2.4,0.7,4.9,1.3,7.3,2c0-0.1,0-0.3,0-0.4c0.1-1.3-0.8-2.7-1.9-3.4c-3-1.8-7.3-1.2-10.6-0.8
	c-4.4,0.5-5.3,6.1-1,7.7c1.3,0.5,2.1,0.6,3.4,0.6c3.7,0.1,5.6-5.7,2-7.3c-3.5-1.6-8.1-0.4-8.8,4
	C402.4,307.8,409.9,309.9,410.6,304.9L410.6,304.9z"/>
<g>
	<path class="st1" d="M519.4,785.7c-41.5,0-75.3-33.8-75.3-75.3s33.8-75.3,75.3-75.3s75.3,33.8,75.3,75.3S561,785.7,519.4,785.7z
		 M519.4,645.5c-35.8,0-64.9,29.1-64.9,64.9s29.1,64.9,64.9,64.9s64.9-29.1,64.9-64.9S555.2,645.5,519.4,645.5z"/>
	<g>
		<path class="st1" d="M519.7,788.3h-0.3c-2.7,0-5.4-0.1-8-0.4l0.5-5.2c2.5,0.3,5,0.4,7.5,0.4h0.3V788.3z M521.1,788.3l-0.1-5.2
			c2.5-0.1,5-0.2,7.5-0.5l0.6,5.2C526.5,788,523.8,788.2,521.1,788.3z M510,787.8c-2.7-0.3-5.3-0.8-7.9-1.4l1.2-5.1
			c2.4,0.6,4.9,1,7.4,1.3L510,787.8z M530.5,787.5l-0.7-5.2c2.5-0.3,4.9-0.8,7.4-1.4l1.3,5.1C535.8,786.6,533.1,787.2,530.5,787.5z
			 M500.8,786.1c-2.6-0.6-5.2-1.4-7.7-2.3l1.8-4.9c2.4,0.8,4.8,1.6,7.2,2.2L500.8,786.1z M539.7,785.6l-1.4-5
			c2.4-0.6,4.8-1.4,7.2-2.3l1.9,4.9C544.8,784.1,542.3,785,539.7,785.6z M491.8,783.3c-2.5-1-5-2-7.4-3.3l2.4-4.7
			c2.2,1.1,4.6,2.1,6.9,3L491.8,783.3z M548.6,782.7l-2-4.8c2.3-0.9,4.6-2,6.8-3.2l2.5,4.6C553.5,780.5,551.1,781.7,548.6,782.7z
			 M483.2,779.4c-2.4-1.2-4.7-2.6-6.9-4.1l2.9-4.3c2.1,1.4,4.3,2.7,6.5,3.8L483.2,779.4z M557.1,778.6l-2.5-4.6
			c2.2-1.2,4.3-2.5,6.4-4l3,4.3C561.7,775.9,559.4,777.3,557.1,778.6z M475.2,774.5c-2.2-1.5-4.4-3.2-6.4-4.9l3.4-4
			c1.9,1.6,3.9,3.2,6,4.6L475.2,774.5z M565,773.6l-3.1-4.2c2-1.5,4-3.1,5.9-4.7l3.5,3.9C569.3,770.3,567.2,772,565,773.6z
			 M467.8,768.7c-2-1.8-3.9-3.7-5.8-5.7l3.8-3.5c1.7,1.8,3.5,3.6,5.4,5.3L467.8,768.7z M572.3,767.6l-3.5-3.8
			c1.8-1.7,3.6-3.5,5.3-5.4l3.9,3.5C576.1,763.8,574.3,765.8,572.3,767.6z M461.1,762.1c-1.8-2-3.5-4.1-5-6.3l4.2-3.1
			c1.5,2,3,4,4.7,5.9L461.1,762.1z M578.8,760.8l-4-3.4c1.6-1.9,3.2-3.9,4.6-6l4.3,3C582.2,756.6,580.5,758.8,578.8,760.8z
			 M455.3,754.7c-1.5-2.2-3-4.5-4.2-6.9l4.6-2.5c1.2,2.2,2.5,4.3,4,6.4L455.3,754.7z M584.5,753.3l-4.4-2.9c1.4-2.1,2.7-4.3,3.8-6.5
			l4.6,2.4C587.3,748.7,585.9,751.1,584.5,753.3z M450.4,746.6c-1.3-2.4-2.4-4.8-3.4-7.3l4.8-1.9c0.9,2.3,2,4.6,3.2,6.8L450.4,746.6
			z M589.2,745.2l-4.7-2.3c1.1-2.2,2.1-4.5,3-6.9l4.9,1.8C591.5,740.3,590.4,742.8,589.2,745.2z M446.5,738.1
			c-1-2.5-1.8-5.1-2.5-7.7l5-1.3c0.6,2.4,1.4,4.8,2.3,7.2L446.5,738.1z M592.9,736.5l-4.9-1.8c0.8-2.4,1.6-4.8,2.2-7.2l5.1,1.2
			C594.5,731.4,593.8,734,592.9,736.5z M443.7,729.1c-0.6-2.6-1.2-5.3-1.5-7.9l5.2-0.7c0.3,2.5,0.8,5,1.4,7.4L443.7,729.1z
			 M595.5,727.5l-5.1-1.1c0.5-2.4,1-4.9,1.3-7.4l5.2,0.6C596.5,722.2,596.1,724.9,595.5,727.5z M442,719.8c-0.3-2.7-0.5-5.4-0.6-8
			l5.2-0.1c0,2.5,0.2,5,0.5,7.5L442,719.8z M597,718.2l-5.2-0.5c0.2-2.4,0.4-4.9,0.4-7.3l5.2-0.2v0.2
			C597.4,713,597.2,715.6,597,718.2z M441.5,710.4l0-0.2c0-2.5,0.1-5.2,0.4-7.8l5.2,0.5c-0.2,2.5-0.4,5-0.4,7.4L441.5,710.4z
			 M592.1,708.9c0-2.5-0.2-5-0.5-7.5l5.2-0.6c0.3,2.6,0.5,5.4,0.6,8L592.1,708.9z M447.2,701.7L442,701c0.3-2.7,0.8-5.3,1.4-7.9
			l5.1,1.2C447.9,696.7,447.5,699.2,447.2,701.7z M591.4,700.1c-0.3-2.5-0.8-5-1.4-7.4l5.1-1.3c0.7,2.6,1.2,5.3,1.5,7.9L591.4,700.1
			z M448.8,693l-5.1-1.2c0.6-2.6,1.4-5.2,2.3-7.7l4.9,1.8C450.1,688.2,449.4,690.6,448.8,693z M589.7,691.5
			c-0.6-2.4-1.4-4.8-2.3-7.2l4.9-1.9c1,2.5,1.8,5.1,2.5,7.7L589.7,691.5z M451.4,684.7l-4.9-1.9c1-2.5,2-5,3.2-7.4l4.7,2.3
			C453.3,680,452.3,682.3,451.4,684.7z M586.9,683.2c-0.9-2.3-2-4.6-3.2-6.8l4.6-2.4c1.3,2.4,2.4,4.8,3.4,7.3L586.9,683.2z
			 M455,676.6l-4.6-2.4c1.2-2.4,2.6-4.7,4.1-6.9l4.3,2.9C457.4,672.3,456.1,674.4,455,676.6z M583.1,675.3c-1.2-2.2-2.5-4.3-4-6.4
			l4.3-3c1.5,2.2,3,4.5,4.3,6.8L583.1,675.3z M459.5,669.1l-4.3-3c1.5-2.2,3.2-4.4,4.9-6.4l4,3.4
			C462.5,665.1,460.9,667.1,459.5,669.1z M578.4,667.9c-1.5-2-3-4-4.7-5.9l3.9-3.5c1.8,2,3.5,4.1,5,6.3L578.4,667.9z M464.9,662.2
			l-3.9-3.5c1.8-2,3.7-3.9,5.6-5.8l3.5,3.8C468.4,658.5,466.6,660.4,464.9,662.2z M572.9,661.1c-1.7-1.8-3.5-3.6-5.4-5.3l3.5-3.9
			c2,1.8,3.9,3.7,5.8,5.6L572.9,661.1z M471.1,656l-3.5-3.9c2-1.8,4.1-3.5,6.3-5l3.1,4.2C475,652.8,473,654.3,471.1,656z M566.6,655
			c-1.9-1.6-3.9-3.2-6-4.6l3-4.3c2.2,1.5,4.4,3.2,6.4,4.9L566.6,655z M478,650.6l-3-4.3c2.2-1.5,4.5-3,6.9-4.3l2.5,4.6
			C482.2,647.8,480.1,649.2,478,650.6z M559.5,649.7c-2.1-1.4-4.3-2.7-6.5-3.8l2.4-4.6c2.4,1.2,4.7,2.6,6.9,4.1L559.5,649.7z
			 M485.5,646l-2.4-4.6c2.4-1.3,4.8-2.4,7.3-3.4l1.9,4.8C490,643.8,487.7,644.8,485.5,646z M551.9,645.3c-2.2-1.1-4.5-2.1-6.9-3
			l1.8-4.9c2.5,1,5,2,7.4,3.2L551.9,645.3z M493.5,642.4l-1.9-4.9c2.5-1,5.1-1.8,7.7-2.5l1.3,5C498.3,640.7,495.9,641.5,493.5,642.4
			z M543.9,641.9c-2.4-0.8-4.8-1.6-7.2-2.2l1.2-5.1c2.6,0.6,5.2,1.4,7.7,2.3L543.9,641.9z M501.9,639.8l-1.3-5.1
			c2.6-0.7,5.3-1.2,7.9-1.5l0.7,5.2C506.8,638.7,504.3,639.2,501.9,639.8z M535.5,639.4c-2.4-0.5-4.9-1-7.4-1.3l0.6-5.2
			c2.7,0.3,5.3,0.8,7.9,1.4L535.5,639.4z M510.5,638.2l-0.6-5.2c2.6-0.3,5.4-0.5,8-0.6l0.1,5.2C515.5,637.7,513,637.9,510.5,638.2z
			 M526.8,638c-2.4-0.2-4.9-0.4-7.4-0.4l-0.1-5.2l0.3,0c2.5,0,5.2,0.1,7.8,0.4L526.8,638z"/>
		<path class="st1" d="M519.3,777.9c-1.6,0-3.2-0.1-4.7-0.2l0.4-5.2c1.5,0.1,2.9,0.2,4.5,0.2c1,0,2,0,3-0.1l0.2,5.2
			C521.5,777.8,520.5,777.9,519.3,777.9z M524,777.7l-0.4-5.2c2.5-0.2,4.9-0.5,7.4-0.9l1,5.1C529.3,777.2,526.7,777.5,524,777.7z
			 M513.2,777.6c-2.7-0.2-5.3-0.6-8-1.2l1.1-5.1c2.4,0.5,4.9,0.9,7.4,1.1L513.2,777.6z M533.3,776.4l-1.1-5.1c2.4-0.5,4.8-1.2,7.2-2
			l1.7,4.9C538.6,775.2,535.9,775.9,533.3,776.4z M504,776.1c-2.6-0.6-5.2-1.4-7.7-2.3l1.8-4.9c2.3,0.9,4.7,1.6,7.1,2.1L504,776.1z
			 M542.4,773.8l-1.8-4.9c2.3-0.8,4.6-1.8,6.8-3l2.4,4.7C547.4,771.9,544.9,772.9,542.4,773.8z M495,773.3c-2.5-1-5-2.1-7.3-3.4
			l2.5-4.6c2.2,1.2,4.4,2.2,6.8,3.1L495,773.3z M551,770l-2.4-4.6c2.2-1.2,4.3-2.5,6.4-3.9l3,4.3C555.7,767.4,553.3,768.8,551,770z
			 M486.5,769.3c-2.3-1.3-4.6-2.8-6.8-4.4l3.1-4.2c2,1.5,4.1,2.8,6.3,4L486.5,769.3z M559,765l-3.1-4.2c2-1.5,3.9-3,5.8-4.7l3.5,3.8
			C563.2,761.7,561.2,763.5,559,765z M478.6,764.1c-2.1-1.6-4.2-3.4-6.1-5.3l3.6-3.8c1.8,1.7,3.7,3.4,5.6,4.9L478.6,764.1z
			 M566.2,759l-3.6-3.8c1.8-1.7,3.5-3.6,5.1-5.5l4,3.3C570,755.2,568.1,757.1,566.2,759z M471.5,757.9c-1.9-1.9-3.7-3.9-5.3-6.1
			l4.1-3.2c1.5,1.9,3.2,3.8,4.9,5.6L471.5,757.9z M572.5,752l-4.1-3.2c1.5-1.9,3-4,4.2-6.1l4.5,2.7
			C575.7,747.7,574.2,749.9,572.5,752z M465.4,750.8c-1.6-2.2-3.1-4.4-4.4-6.7l4.5-2.6c1.2,2.1,2.6,4.2,4.1,6.2L465.4,750.8z
			 M577.8,744.2l-4.5-2.6c1.2-2.1,2.4-4.4,3.4-6.6l4.8,2.1C580.4,739.5,579.1,741.9,577.8,744.2z M460.3,742.9
			c-1.3-2.3-2.5-4.8-3.5-7.3l4.8-2c0.9,2.3,2,4.6,3.2,6.7L460.3,742.9z M581.9,735.8l-4.8-2c0.9-2.3,1.7-4.7,2.4-7l5,1.4
			C583.8,730.8,583,733.3,581.9,735.8z M456.3,734.3c-1-2.5-1.8-5.1-2.4-7.7l5.1-1.3c0.6,2.4,1.3,4.8,2.2,7.1L456.3,734.3z
			 M584.9,726.9l-5.1-1.3c0.6-2.4,1.1-4.9,1.4-7.3l5.2,0.7C586.1,721.6,585.5,724.3,584.9,726.9z M453.6,725.3c-0.6-2.6-1-5.3-1.3-8
			l5.2-0.5c0.3,2.5,0.7,4.9,1.2,7.3L453.6,725.3z M586.5,717.6l-5.2-0.6c0.2-2.2,0.4-4.4,0.4-6.7l0-0.8l5.2-0.1l0,0.8
			C586.9,712.8,586.8,715.2,586.5,717.6z M452.1,716c-0.2-1.9-0.2-3.8-0.2-5.6c0-0.8,0-1.6,0-2.4l5.2,0.2c0,0.7,0,1.5,0,2.2
			c0,1.7,0.1,3.5,0.2,5.2L452.1,716z M581.7,708.4c-0.1-2.5-0.3-5-0.7-7.4l5.2-0.8c0.4,2.6,0.7,5.3,0.7,8L581.7,708.4z M457.2,706.9
			l-5.2-0.3c0.1-2.7,0.5-5.4,0.9-8l5.1,0.9C457.7,701.9,457.4,704.4,457.2,706.9z M580.8,699.7c-0.4-2.4-1-4.9-1.7-7.2l5-1.5
			c0.8,2.6,1.4,5.2,1.8,7.9L580.8,699.7z M458.3,698.3l-5.1-1c0.5-2.6,1.2-5.3,2-7.8l5,1.6C459.4,693.4,458.8,695.8,458.3,698.3z
			 M578.7,691.3c-0.8-2.4-1.7-4.7-2.7-6.9l4.7-2.2c1.1,2.4,2.1,5,2.9,7.5L578.7,691.3z M460.6,689.9l-4.9-1.7c0.9-2.5,1.9-5,3.1-7.4
			l4.7,2.3C462.4,685.2,461.4,687.6,460.6,689.9z M575.5,683.2c-1.1-2.2-2.3-4.4-3.6-6.5l4.4-2.8c1.5,2.3,2.8,4.6,4,7L575.5,683.2z
			 M464,681.9l-4.6-2.4c1.2-2.4,2.6-4.7,4.1-6.9l4.3,2.9C466.4,677.6,465.1,679.7,464,681.9z M571.2,675.7c-1.4-2.1-2.9-4-4.5-5.9
			l4-3.4c1.7,2,3.4,4.2,4.9,6.4L571.2,675.7z M468.5,674.5l-4.3-3c1.5-2.2,3.2-4.3,5-6.3l3.9,3.5
			C471.5,670.5,469.9,672.5,468.5,674.5z M565.8,668.8c-1.7-1.8-3.4-3.6-5.3-5.2l3.5-3.9c2,1.8,3.9,3.7,5.7,5.7L565.8,668.8z
			 M474,667.8l-3.8-3.6c1.8-2,3.8-3.8,5.9-5.5l3.4,4C477.5,664.2,475.7,666,474,667.8z M559.6,662.8c-1.9-1.6-3.9-3.1-6-4.5l2.9-4.4
			c2.2,1.5,4.4,3.1,6.5,4.8L559.6,662.8z M480.4,661.9l-3.3-4.1c2.1-1.7,4.3-3.3,6.6-4.7l2.8,4.4
			C484.3,658.9,482.3,660.3,480.4,661.9z M552.6,657.7c-2.1-1.3-4.3-2.5-6.5-3.6l2.2-4.7c2.4,1.2,4.8,2.5,7.1,3.9L552.6,657.7z
			 M487.5,656.9l-2.7-4.5c2.3-1.4,4.7-2.6,7.2-3.7l2.1,4.8C491.9,654.5,489.6,655.6,487.5,656.9z M545,653.5c-2.3-1-4.6-1.9-7-2.6
			l1.6-5c2.6,0.8,5.1,1.8,7.5,2.9L545,653.5z M495.2,653l-2-4.8c2.5-1,5-1.9,7.6-2.7l1.4,5C499.9,651.2,497.5,652,495.2,653z
			 M536.8,650.5c-2.4-0.7-4.8-1.2-7.3-1.6l0.8-5.2c2.7,0.4,5.3,1,7.9,1.8L536.8,650.5z M503.5,650.1l-1.3-5c2.6-0.7,5.3-1.2,7.9-1.6
			l0.7,5.2C508.3,649,505.9,649.5,503.5,650.1z M528.3,648.7c-2.4-0.4-4.9-0.6-7.4-0.6l0.1-5.2c2.7,0.1,5.4,0.3,8,0.7L528.3,648.7z
			 M512,648.5l-0.6-5.2c2.7-0.3,5.4-0.5,8.1-0.5l0.3,5.2h-0.3C516.9,648.1,514.4,648.2,512,648.5z"/>
	</g>
</g>
<rect x="429.5" y="707.2" transform="matrix(0.9995 -3.046651e-02 3.046651e-02 0.9995 -21.5269 14.5936)" width="77.3" height="13.1"/>
<path d="M245.9,674.2c-2.8-24.5,19.4-26.9,38.3-27.2c19.2-0.2,38.5-0.4,57.7-0.7c36.1-0.4,72.2-0.9,108.4-1.4
	c26.8-0.3,55.3-3.4,81.8,1.7c29.6,5.7,49.9,34.1,52.8,63.7c1.2,12.4,20.8,12.6,19.6,0c-3.1-31.9-23.3-68.7-55.1-79.5
	c-30.9-10.5-67.3-5.9-99.2-5.5c-45.5,0.6-91,1.2-136.5,1.7c-20.7,0.2-47.4-4-66.2,6c-14.9,7.9-23.2,24.5-21.3,41.1
	C227.7,686.5,247.3,686.7,245.9,674.2L245.9,674.2z"/>
<path class="st0" d="M596.1,778.4l-89.9-53.6c-15.2-17.3,2.7-33.9,17.5-28.6l82.9,67.9L596.1,778.4z"/>
<circle class="st4" cx="602.5" cy="771.4" r="10.9"/>
<circle class="st1" cx="602.5" cy="771.4" r="5.7"/>
<ellipse transform="matrix(0.292 -0.9564 0.9564 0.292 -314.4954 1000.7722)" class="st1" cx="518.7" cy="712.8" rx="9" ry="9"/>
<path d="M857.1,834.5c-85.9,0-155.8-69.9-155.8-155.8c0-85.9,69.9-155.8,155.8-155.8c85.9,0,155.8,69.9,155.8,155.8
	C1012.9,764.6,943,834.5,857.1,834.5z M857.1,525.5c-84.5,0-153.2,68.7-153.2,153.2s68.7,153.2,153.2,153.2s153.2-68.7,153.2-153.2
	S941.6,525.5,857.1,525.5z"/>
<path class="st2" d="M764.7,455.8c-5.8,0-11.1-3.9-12.6-9.8l-21.8-85.4c-1.8-7,2.4-14.1,9.4-15.9c7-1.8,14.1,2.4,15.9,9.4l21.8,85.4
	c1.8,7-2.4,14.1-9.4,15.9C766.9,455.6,765.8,455.8,764.7,455.8z"/>
<path class="st1" d="M728.7,363c-1.8,0-3.4-1.2-3.8-3c-0.5-2.1,0.8-4.2,2.9-4.7l27.1-6.7c2.1-0.5,4.2,0.8,4.7,2.9
	c0.5,2.1-0.8,4.2-2.9,4.7l-27.1,6.7C729.3,362.9,729,363,728.7,363z"/>
<path class="st2" d="M857.3,697.1c-3.1,0-6.1-1.9-7.3-5c0,0-92.1-208.4-94.8-239.2c-1.4-13.1,5.2-2.4,9.2-4c4-1.6,4.8-9.7,11.7-3.2
	c-3,11.8,88.5,240.7,88.5,240.7c1.6,4-0.4,8.6-4.5,10.1C859.2,696.9,858.2,697.1,857.3,697.1z"/>
<path class="st1" d="M751.6,455.7c-1.8,0-3.4-1.2-3.8-3c-0.5-2.1,0.8-4.2,2.9-4.7l27.1-6.7c2.1-0.5,4.2,0.8,4.7,2.9
	c0.5,2.1-0.8,4.2-2.9,4.7l-27.1,6.7C752.2,455.6,751.9,455.7,751.6,455.7z"/>
<circle class="st2" cx="857.7" cy="681.8" r="16.8"/>
<circle class="st1" cx="857.7" cy="681.8" r="10.4"/>
</svg>
